<svg baseProfile="tiny" xmlns="http://www.w3.org/2000/svg" viewBox="0 0 570 66.088" width="570" height="66.088"><path d="M28.825 32.097H14.12v6.863h2.937v16.116s.117 4.043-4.137 4.043c-4.255 0-4.264-4.492-4.264-4.492V11.87s.178-5.176 4.357-5.176c5.006 0 5.698 6.322 5.698 11.236v5.985h6.265V.795h-6.247v4.474S16.078 0 9.526 0C.004 0 .004 11.692.004 11.692V54.45S-.52 66.016 10.1 66.016c4.66 0 8.08-4.34 8.08-4.34l1.765 3.683h6.238v-26.4h2.642v-6.863zM48.815.794H38.89l-7.58 57.996h-2.804v6.57h12.31v-6.57h-2.466l.76-5.96h7.69l.77 5.96h-2.6v6.57h14.84v-6.57h-3.26L48.817.794zm-8.627 43.68l2.786-22.102 2.71 22.102h-5.496zM81.756 58.79H71.693L88.105 6.704V.778H63.43v22.844h6.297V7.242h8.94L62.51 58.453v6.907h25.604V41.222h-6.358zM91.06 7.228l3.41.015V58.79l-3.41.01v6.56h25.343V41.222h-7.16v17.55l-5.656.017V35.162l5.64.016v-6.686l-5.64.018V7.243h5.657v16.38h7.16V.792H91.06zm55.96 16.394l-.024-22.81h-27.64l-.016 22.81h6.197V7.228h3.3V58.79h-4.144l-.034 6.57h17.035l-.017-6.57h-4.145V7.228h3.3v16.394zM191.37 7.21V.76h-13.322v6.45h3.386l-4.534 35.432-4.626-35.433h2.93V.76h-15.12v6.45h3.24l7.785 58.113h9.776l7.682-58.114zM207.036.66h-9.91l-7.582 58.013h-2.802v6.576h12.308v-6.577h-2.482l.786-5.96h7.673l.793 5.96h-2.6v6.576h14.824v-6.577h-3.267L207.037.66zm-8.61 43.695l2.776-22.102 2.718 22.102h-5.495zM238.313 7.21h3.394v27.707L233.51.76h-12.106v6.45h3.124v51.335h-3.75v6.79H235.3v-6.79h-3.723v-27.68l8.23 34.47h8.966V7.227h3.41V.76h-13.87zM286.99.615h-9.92l-7.58 57.998h-2.803v6.575h12.31v-6.576h-2.482l.81-5.952h7.648l.777 5.952h-2.592v6.575h14.833v-6.576h-3.284L286.99.616zm-8.62 43.705l2.77-22.118 2.72 22.12h-5.49zm39.914-37.278h3.378v27.714L313.482.608h-12.116v6.46h3.108v51.317h-3.74v6.804h14.495v-6.78h-3.715V30.705l8.23 34.484h8.966V7.074h3.436V.608h-13.862zm44.067 16.384l-.015-22.81h-27.64l-.016 22.81h6.18V7.042h3.324v51.546h-4.162l-.025 6.584h17.036l-.026-6.584h-4.143V7.042h3.308v16.384zm36.54-16.258h3.207l-3.664 27.528-4.98-34.003h-7.877l-4.466 33.97L377.1 7.16h3.52V.693h-15.634l-.017 6.467h3.098l8.62 58.114h7.478l4.636-35.28 5.207 35.28h7.463l7.707-58.098h3.148V.693h-13.44zm16.107-.126l3.41.025v51.52l-3.41.027v6.558h25.34V41.037h-7.156v17.55h-5.663v-23.62l5.646.017v-6.67h-5.646V7.067l5.664-.025v16.384h7.158V.593h-25.34zm58.012 45.713c0-8.332.414-13.565-1.51-17.13-1.395-2.633-4.923-3.36-4.923-3.36.92-.168 3.157-1.586 3.892-2.835 1.526-2.533 2.32-6.4 2.32-12.216 0-6.053-.472-8.4-1.654-11.025C468.096.017 462.744.71 459.35.71h-14.8v6.484h3.033v51.31h-3.867v6.77h16.495v-6.728h-3.663v-23.46h3.774c2.374 0 3.673 3.824 3.673 8.645 0 6.806-.404 14.724 1.477 18.523.938 1.907 3.218 5.545 10.824 2.912v-6.467s-3.285 1.46-3.285-5.943zm-9.135-30.443c0 6.712-3.782 6.104-4.625 6.104h-2.636l-.033-21.224h2.83c3.08 0 4.465.312 4.465 6.687v8.432zM494.63.71h-14.79v6.483h3.047v51.31h-3.875v6.77h16.48v-6.77h-3.623V35.07s2.606.437 4.263.437c1.763 0 7.184-.152 9.987-4.803 1.518-2.525 1.695-7.676 1.695-13.49 0-6.054-.193-8.4-1.392-11.026-2.32-5.183-8.408-5.48-11.794-5.48zm4.137 21.602c0 6.712-4.23 6.356-4.23 6.356-1.266 0-2.65-.252-2.65-.252V7.193h2.22c4.112 0 4.524 2.21 4.66 5.927v9.192zm10.813-15.27l3.4.025v51.52l-3.4.027v6.558h25.344V41.037h-7.176v17.55H522.1v-23.62l5.648.017v-6.67H522.1V7.067l5.648-.025v16.384h7.176V.593H509.58zM556.12.608v6.434h3.387v27.714L551.317.608H539.23v6.46h3.106v51.317h-3.767v6.804h14.536v-6.78h-3.73V30.705L557.6 65.19h8.98V7.074H570V.608z" fill="#D71F27"/></svg>